<?xml version="1.0" encoding="utf-8"?>
<!-- Generator: Adobe Illustrator 16.0.0, SVG Export Plug-In . SVG Version: 6.00 Build 0)  -->
<!DOCTYPE svg PUBLIC "-//W3C//DTD SVG 1.1//EN" "http://www.w3.org/Graphics/SVG/1.1/DTD/svg11.dtd">
<svg version="1.1" id="Capa_1" xmlns="http://www.w3.org/2000/svg" xmlns:xlink="http://www.w3.org/1999/xlink" x="0px" y="0px"
	 width="500px" height="800px" viewBox="0 0 500 800" enable-background="new 0 0 500 800" xml:space="preserve">
<g>
	<path fill="none" stroke="#A7DBD8" stroke-miterlimit="10" d="M87.862,162.708c-7.236,58.923-51.272,103.264-98.357,99.039
		c-47.084-4.226-79.388-55.419-72.15-114.342c7.236-58.924,51.271-103.264,98.357-99.039
		C62.796,52.592,95.098,103.784,87.862,162.708z"/>
	<path fill="none" stroke="#A7DBD8" stroke-miterlimit="10" d="M47.729,303.117c-9.139,42.273-45.977,71.893-82.28,66.156
		c-36.301-5.736-58.32-44.653-49.181-86.927c9.141-42.271,45.977-71.891,82.279-66.156
		C34.849,221.926,56.869,260.844,47.729,303.117z"/>
	<path fill="none" stroke="#A7DBD8" stroke-miterlimit="10" d="M-14.465,321.668c0,0,157.306,22.663,109.583,300.677L56.622,804.653
		"/>
</g>
<g>
	<path fill="none" stroke="#A7DBD8" stroke-miterlimit="10" d="M601.636,135.632c5.438,67.322-28.167,126.045-75.062,131.161
		s-89.318-45.312-94.757-112.635c-5.439-67.322,28.166-126.045,75.061-131.161C553.771,17.882,596.196,68.31,601.636,135.632z"/>
	<path fill="none" stroke="#A7DBD8" stroke-miterlimit="10" d="M566.002,278.029c6.245,43.933-13.464,84.304-44.021,90.17
		c-30.557,5.864-60.391-24.997-66.635-68.93c-6.245-43.934,13.463-84.305,44.021-90.169
		C529.924,203.233,559.757,234.095,566.002,278.029z"/>
	<path fill="none" stroke="#A7DBD8" stroke-miterlimit="10" d="M506.872,319.574c0,0-108.354-6.628-85.543,314.779l2.851,33.135
		l15.208,139.165"/>
</g>
<g id="Manito" transform="matrix(0.985, 0.174, -0.174, 0.985, 22.609, 7.551)">
	<path id="Trazado_91" fill="#FAC14D" d="M82.534,798.533l109.934-160.65c1.247-2.054,0.961-4.69-0.697-6.431
		c-2.443-2.444-5.685-0.712-8.146,0.964l-8.99,6.099c-0.682,0.463-1.606,0.287-2.068-0.397c-0.263-0.389-0.326-0.877-0.174-1.32
		l7.226-20.866c0.444-1.277,0.887-2.662-0.195-3.912c-0.792-0.867-1.971-1.265-3.125-1.056c-2.155,0.602-4,2.001-5.156,3.916
		c-2.915,3.684-6.45,10.293-9.223,13.307c-0.905,0.985-2.439,1.055-3.426,0.15c-0.416-0.383-0.685-0.898-0.764-1.454
		c-0.124-2.16,0.298-4.322,1.226-6.28l8.47-20.281c0.584-1.318,0.549-2.824-0.1-4.115c-1.923-3.579-6.826-1.411-9.47,1.225
		c-4.177,4.164-7.547,9.06-9.95,14.444c-1.029,2.722-2.492,5.258-4.331,7.52c-0.754,0.742-1.965,0.737-2.709-0.016
		c-0.51-0.512-0.688-1.27-0.458-1.958l6.194-18.517c0.511-1.533,1.035-3.18-0.142-4.715c-1.038-1.282-2.703-1.876-4.318-1.543
		c-2.612,0.748-4.763,2.593-5.897,5.065c-4.588,7.871-6.418,18.702-13.778,23.215c-0.723,0.455-1.676,0.236-2.129-0.489
		c-0.149-0.239-0.231-0.517-0.236-0.797c-0.054-4.188-0.605-8.404-3.895-11.488c-2.051-2.025-5.184-2.469-7.717-1.093
		c-4.469,2.609-3.107,8.906-1.883,13.766c15.453,61.306-49.932,97.89-73.644,144.389C37.546,768.315,82.489,798.601,82.534,798.533z
		"/>
</g>
<g id="Manito-2" transform="translate(631.571 30.395) rotate(-30)">
	<path id="Trazado_91-2" fill="#FF6F91" d="M-685.458-74.046l179.839-25.091c2.201-0.433,3.841-2.285,3.999-4.521
		c0.153-3.222-3.081-4.37-5.783-5.017l-9.854-2.366c-0.745-0.177-1.204-0.929-1.023-1.675c0.102-0.423,0.397-0.777,0.799-0.949
		l18.929-8.125c1.16-0.496,2.392-1.058,2.575-2.592c0.099-1.087-0.367-2.15-1.238-2.817c-1.767-1.11-3.891-1.501-5.94-1.097
		c-4.372,0.305-11.146,2.017-14.969,1.998c-1.247-0.005-2.258-1.019-2.254-2.267c0.001-0.528,0.184-1.037,0.521-1.439
		c1.416-1.448,3.171-2.514,5.107-3.104l19.301-6.896c1.274-0.426,2.294-1.396,2.775-2.652c1.26-3.576-3.317-5.593-6.793-5.761
		c-5.493-0.265-10.987,0.488-16.208,2.209c-2.525,1.002-5.197,1.589-7.906,1.734c-0.986-0.05-1.743-0.889-1.695-1.875
		c0.036-0.672,0.448-1.272,1.068-1.544l16.66-7.36c1.377-0.606,2.843-1.283,3.162-3.057c0.23-1.522-0.409-3.045-1.651-3.946
		c-2.153-1.334-4.781-1.656-7.195-0.887c-8.311,1.781-16.929,7.321-24.666,5.082c-0.766-0.213-1.213-1.006-0.999-1.773
		c0.072-0.255,0.209-0.485,0.406-0.665c2.85-2.668,5.407-5.693,5.47-9.9c0.11-2.686-1.553-5.126-4.09-6.009
		c-4.609-1.444-8.095,3.452-10.678,7.349c-32.573,49.166-98.873,27.054-145.832,39.911
		C-692.875-124.05-685.533-74.034-685.458-74.046z"/>
</g>
<g id="Manito_1_" transform="matrix(0.985, 0.174, -0.174, 0.985, 22.609, 7.551)">
	<g>
		<path id="Trazado_91_10_" fill="#FF8A2F" d="M602.474,311.946L460.562,178.697c-1.839-1.546-4.486-1.668-6.462-0.297
			c-2.789,2.039-1.574,5.509-0.295,8.197l4.65,9.819c0.352,0.744,0.036,1.631-0.711,1.983c-0.424,0.2-0.916,0.189-1.331-0.03
			l-19.512-10.338c-1.194-0.633-2.495-1.283-3.897-0.406c-0.978,0.65-1.552,1.753-1.522,2.926c0.265,2.222,1.365,4.259,3.079,5.695
			c3.194,3.445,9.184,7.951,11.738,11.153c0.835,1.045,0.668,2.572-0.376,3.409c-0.442,0.352-0.992,0.54-1.555,0.533
			c-2.153-0.208-4.224-0.957-6.017-2.174l-18.745-11.477c-1.212-0.778-2.706-0.974-4.08-0.531c-3.832,1.352-2.44,6.53-0.24,9.546
			c3.475,4.766,7.797,8.846,12.748,12.046c2.532,1.433,4.815,3.267,6.767,5.432c0.618,0.858,0.427,2.054-0.431,2.675
			c-0.584,0.425-1.361,0.485-2.005,0.152l-17.349-8.957c-1.437-0.742-2.984-1.511-4.681-0.583c-1.426,0.83-2.269,2.384-2.187,4.031
			c0.339,2.696,1.833,5.104,4.101,6.603c7.076,5.741,17.498,9.208,20.832,17.171c0.339,0.784-0.024,1.693-0.81,2.029
			c-0.26,0.111-0.547,0.149-0.824,0.112c-4.147-0.589-8.397-0.689-11.948,2.089c-2.315,1.717-3.234,4.745-2.263,7.459
			c1.894,4.815,8.324,4.434,13.315,3.968c62.95-5.878,89.084,64.339,131.402,94.895C565.72,351.773,602.534,312.001,602.474,311.946
			z"/>
	</g>
</g>
<g id="Manito_2_" transform="matrix(0.985, 0.174, -0.174, 0.985, 22.609, 7.551)">
	<g>
		<path id="Trazado_91_11_" fill="#2B958E" d="M676.891,748.902L534.979,615.653c-1.838-1.545-4.486-1.668-6.462-0.296
			c-2.789,2.039-1.574,5.509-0.295,8.198l4.65,9.819c0.352,0.745,0.036,1.631-0.71,1.983c-0.424,0.2-0.917,0.189-1.331-0.031
			l-19.512-10.338c-1.195-0.634-2.495-1.283-3.897-0.406c-0.978,0.65-1.552,1.753-1.523,2.926c0.265,2.223,1.365,4.26,3.079,5.696
			c3.194,3.445,9.184,7.951,11.738,11.152c0.835,1.044,0.668,2.572-0.376,3.41c-0.443,0.352-0.992,0.539-1.555,0.532
			c-2.153-0.208-4.224-0.957-6.017-2.174l-18.745-11.478c-1.212-0.777-2.706-0.973-4.08-0.53c-3.832,1.351-2.441,6.529-0.24,9.545
			c3.475,4.766,7.797,8.846,12.748,12.046c2.533,1.433,4.815,3.268,6.767,5.432c0.617,0.858,0.427,2.054-0.431,2.675
			c-0.584,0.425-1.361,0.484-2.005,0.152l-17.349-8.957c-1.437-0.742-2.984-1.51-4.68-0.583c-1.426,0.83-2.269,2.384-2.187,4.031
			c0.339,2.696,1.833,5.104,4.101,6.604c7.076,5.74,17.498,9.207,20.831,17.171c0.339,0.784-0.024,1.693-0.81,2.029
			c-0.26,0.11-0.547,0.149-0.824,0.112c-4.147-0.589-8.397-0.689-11.948,2.09c-2.315,1.716-3.234,4.744-2.263,7.459
			c1.894,4.815,8.324,4.434,13.315,3.967c62.95-5.877,89.084,64.339,131.402,94.895
			C640.137,788.729,676.952,748.957,676.891,748.902z"/>
	</g>
</g>
</svg>
