<svg version="1.1" id="Capa_1" xmlns="http://www.w3.org/2000/svg" xmlns:xlink="http://www.w3.org/1999/xlink" x="0px" y="0px"
	 width="1490.412px" height="850.685px" viewBox="0 0 1490.412 850.685" enable-background="new 0 0 1490.412 850.685"
	 xml:space="preserve">
<path fill-rule="evenodd" clip-rule="evenodd" fill="none" stroke="#A7DBD8" stroke-miterlimit="10" d="M66.918,186.782
	c-5.949,63.13-42.152,110.637-80.862,106.11c-38.709-4.527-65.267-59.375-59.317-122.505c5.949-63.13,42.152-110.637,80.862-106.11
	C46.31,68.804,72.867,123.651,66.918,186.782z"/>
<path fill-rule="evenodd" clip-rule="evenodd" fill="none" stroke="#A7DBD8" stroke-miterlimit="10" d="M33.924,337.217
	c-7.514,45.291-37.799,77.025-67.645,70.88c-29.844-6.146-47.947-47.842-40.433-93.134c7.515-45.289,37.799-77.024,67.644-70.879
	C23.335,250.228,41.438,291.925,33.924,337.217z"/>
<path fill-rule="evenodd" clip-rule="evenodd" fill="none" stroke="#A7DBD8" stroke-miterlimit="10" d="M-17.208,357.091
	c0,0,129.325,24.28,90.092,322.144L41.235,874.562"/>
<path fill-rule="evenodd" clip-rule="evenodd" fill="none" stroke="#A7DBD8" stroke-miterlimit="10" d="M1585.636,150.304
	c5.438,72.834-28.167,136.365-75.062,141.899c-46.894,5.535-89.318-49.022-94.757-121.856
	c-5.439-72.833,28.166-136.365,75.061-141.9C1537.771,22.914,1580.196,77.471,1585.636,150.304z"/>
<path fill-rule="evenodd" clip-rule="evenodd" fill="none" stroke="#A7DBD8" stroke-miterlimit="10" d="M1550.002,304.358
	c6.245,47.53-13.464,91.207-44.021,97.552c-30.557,6.345-60.391-27.043-66.635-74.573c-6.245-47.532,13.463-91.207,44.021-97.552
	C1513.924,223.439,1543.757,256.828,1550.002,304.358z"/>
<path fill-rule="evenodd" clip-rule="evenodd" fill="none" stroke="#A7DBD8" stroke-miterlimit="10" d="M1490.872,349.305
	c0,0-108.354-7.169-85.543,340.55l2.851,35.848l15.208,150.559"/>
</svg>
