<svg version="1.1" id="Capa_1" xmlns="http://www.w3.org/2000/svg" xmlns:xlink="http://www.w3.org/1999/xlink" x="0px" y="0px"
	 width="1490.412px" height="743.832px" viewBox="0 0 1490.412 743.832" enable-background="new 0 0 1490.412 743.832"
	 xml:space="preserve">
<path fill-rule="evenodd" clip-rule="evenodd" fill="none" stroke="#A7DBD8" stroke-miterlimit="10" d="M66.918,162.454
	c-5.949,55.555-42.152,97.362-80.862,93.378c-38.709-3.984-65.267-52.251-59.317-107.806c5.949-55.556,42.152-97.362,80.862-93.378
	C46.31,58.632,72.867,106.898,66.918,162.454z"/>
<path fill-rule="evenodd" clip-rule="evenodd" fill="none" stroke="#A7DBD8" stroke-miterlimit="10" d="M33.924,294.838
	c-7.514,39.856-37.799,67.783-67.645,62.375c-29.844-5.408-47.947-42.101-40.433-81.959c7.515-39.855,37.799-67.782,67.644-62.375
	C23.335,218.287,41.438,254.981,33.924,294.838z"/>
<path fill-rule="evenodd" clip-rule="evenodd" fill="none" stroke="#A7DBD8" stroke-miterlimit="10" d="M-17.208,312.328
	c0,0,129.325,21.367,90.092,283.49L41.235,767.708"/>
<path fill-rule="evenodd" clip-rule="evenodd" fill="none" stroke="#A7DBD8" stroke-miterlimit="10" d="M1585.636,151.592
	c5.438,61.984-28.167,116.051-75.062,120.761c-46.894,4.71-89.318-41.719-94.757-103.704
	c-5.439-61.984,28.166-116.052,75.061-120.762C1537.771,43.178,1580.196,89.608,1585.636,151.592z"/>
<path fill-rule="evenodd" clip-rule="evenodd" fill="none" stroke="#A7DBD8" stroke-miterlimit="10" d="M1550.002,282.698
	c6.245,40.449-13.464,77.62-44.021,83.021c-30.557,5.399-60.391-23.015-66.635-63.465c-6.245-40.451,13.463-77.62,44.021-83.02
	C1513.924,213.833,1543.757,242.248,1550.002,282.698z"/>
<path fill-rule="evenodd" clip-rule="evenodd" fill="none" stroke="#A7DBD8" stroke-miterlimit="10" d="M1490.872,320.949
	c0,0-108.354-6.102-85.543,289.82l2.851,30.508l15.208,128.131"/>
<g id="Manito" transform="matrix(0.985, 0.174, -0.174, 0.985, 22.609, 7.551)">
	<path id="Trazado_91" fill="#FAC14D" d="M488.328,682.088l6.926-118.37c0.005-1.464-0.971-2.749-2.383-3.138
		c-2.043-0.508-3.191,1.415-3.95,3.061l-2.776,6.008c-0.21,0.454-0.749,0.652-1.204,0.442c-0.259-0.121-0.446-0.355-0.506-0.634
		l-2.782-13.161c-0.169-0.806-0.372-1.667-1.33-1.98c-0.685-0.204-1.426-0.042-1.962,0.43c-0.937,0.99-1.46,2.3-1.462,3.663
		c-0.364,2.838-0.134,7.397-0.635,9.841c-0.162,0.799-0.941,1.317-1.741,1.154c-0.337-0.068-0.639-0.252-0.855-0.518
		c-0.744-1.089-1.203-2.35-1.333-3.664l-1.948-13.243c-0.109-0.871-0.601-1.647-1.344-2.116c-2.128-1.265-4.006,1.407-4.558,3.613
		c-0.872,3.484-1.094,7.098-0.657,10.662c0.318,1.745,0.351,3.528,0.1,5.284c-0.159,0.626-0.793,1.004-1.418,0.845
		c-0.427-0.108-0.758-0.449-0.854-0.879l-2.582-11.609c-0.214-0.961-0.459-1.985-1.555-2.417c-0.944-0.343-2-0.131-2.738,0.551
		c-1.128,1.211-1.671,2.85-1.488,4.495c0.078,5.549,2.524,11.776,0.1,16.443c-0.234,0.465-0.8,0.65-1.263,0.414
		c-0.154-0.078-0.284-0.198-0.375-0.343c-1.343-2.168-2.954-4.194-5.64-4.772c-1.706-0.412-3.481,0.34-4.371,1.854
		c-1.513,2.765,1.175,5.623,3.341,7.775c27.318,27.145,4.681,66.772,6.908,98.487C455.358,680.444,488.326,682.138,488.328,682.088z
		"/>
</g>
<g id="Manito-2" transform="translate(631.571 30.395) rotate(-30)">
	<path id="Trazado_91-2" fill="#FF6F91" d="M106.848,890.133l6.841-116.874c0.003-1.445-0.96-2.716-2.354-3.099
		c-2.017-0.503-3.151,1.397-3.901,3.023l-2.74,5.932c-0.207,0.449-0.74,0.644-1.189,0.436c-0.255-0.118-0.441-0.35-0.499-0.626
		l-2.747-12.993c-0.167-0.797-0.367-1.646-1.314-1.956c-0.675-0.2-1.406-0.039-1.937,0.427c-0.925,0.977-1.441,2.271-1.444,3.617
		c-0.359,2.803-0.132,7.302-0.627,9.716c-0.16,0.788-0.929,1.3-1.718,1.14c-0.333-0.068-0.631-0.248-0.844-0.511
		c-0.736-1.078-1.189-2.323-1.317-3.62l-1.924-13.074c-0.108-0.86-0.593-1.627-1.326-2.09c-2.102-1.248-3.955,1.391-4.5,3.568
		c-0.861,3.439-1.079,7.008-0.649,10.526c0.314,1.723,0.348,3.486,0.099,5.218c-0.156,0.617-0.783,0.99-1.4,0.835
		c-0.421-0.108-0.748-0.444-0.842-0.87l-2.55-11.462c-0.21-0.948-0.453-1.96-1.534-2.386c-0.933-0.338-1.977-0.127-2.704,0.545
		c-1.115,1.194-1.651,2.814-1.469,4.437c0.077,5.48,2.492,11.628,0.099,16.237c-0.231,0.457-0.789,0.64-1.247,0.408
		c-0.152-0.078-0.28-0.194-0.369-0.341c-1.326-2.139-2.917-4.138-5.569-4.708c-1.684-0.409-3.437,0.334-4.316,1.827
		c-1.495,2.732,1.161,5.554,3.299,7.679c26.973,26.802,4.622,65.929,6.822,97.243C74.296,888.509,106.846,890.181,106.848,890.133z"
		/>
</g>
</svg>
