<svg xmlns="http://www.w3.org/2000/svg" width="65.83" height="105.961" viewBox="0 0 65.83 105.961">
  <g id="Manito" transform="matrix(-0.961, 0.276, -0.276, -0.961, 65.83, 94.887)">
    <path id="Trazado_91" data-name="Trazado 91" d="M1276.753,511.182l5.158-88.15a2.418,2.418,0,0,0-1.775-2.338c-1.521-.378-2.376,1.054-2.942,2.28l-2.067,4.474a.675.675,0,0,1-1.273-.144l-2.072-9.8c-.126-.6-.277-1.241-.991-1.475a1.55,1.55,0,0,0-1.461.321,3.982,3.982,0,0,0-1.089,2.728c-.271,2.114-.1,5.508-.473,7.328a1.1,1.1,0,0,1-1.933.474,5.858,5.858,0,0,1-.993-2.729l-1.451-9.861a2.183,2.183,0,0,0-1-1.576c-1.585-.942-2.983,1.048-3.394,2.691a21.77,21.77,0,0,0-.489,7.939,12.259,12.259,0,0,1,.074,3.935.869.869,0,0,1-1.691-.026l-1.923-8.645c-.159-.715-.342-1.478-1.158-1.8a2,2,0,0,0-2.039.411,4.222,4.222,0,0,0-1.108,3.347c.059,4.133,1.88,8.77.075,12.246a.7.7,0,0,1-1.22.052c-1-1.614-2.2-3.122-4.2-3.552a2.965,2.965,0,0,0-3.255,1.379c-1.127,2.059.875,4.188,2.488,5.791,20.344,20.215,3.486,49.726,5.145,73.344C1252.2,509.958,1276.751,511.219,1276.753,511.182Z" transform="translate(-1241.733 -412.472)" fill="#ff8a2f"/>
  </g>
</svg>
