<?xml version="1.0" encoding="utf-8"?>
<!-- Generator: Adobe Illustrator 16.0.0, SVG Export Plug-In . SVG Version: 6.00 Build 0)  -->
<!DOCTYPE svg PUBLIC "-//W3C//DTD SVG 1.1//EN" "http://www.w3.org/Graphics/SVG/1.1/DTD/svg11.dtd">
<svg version="1.1" id="Capa_1" xmlns="http://www.w3.org/2000/svg" xmlns:xlink="http://www.w3.org/1999/xlink" x="0px" y="0px"
	 width="1490px" height="118.23px" viewBox="0 0 1490 118.23" enable-background="new 0 0 1490 118.23" xml:space="preserve">
<g id="Manito_1_" transform="matrix(-0.961, 0.276, -0.276, -0.961, 65.83, 94.887)">
	<path id="Trazado_91_1_" fill="#FF8A2F" d="M-199.467,50.168l6.98-119.307c0.004-1.476-0.979-2.771-2.402-3.163
		c-2.058-0.512-3.216,1.426-3.981,3.084l-2.798,6.057c-0.211,0.456-0.755,0.655-1.211,0.443c-0.263-0.118-0.451-0.357-0.511-0.639
		l-2.805-13.264c-0.17-0.813-0.374-1.68-1.341-1.997c-0.69-0.202-1.436-0.041-1.977,0.434c-0.944,0.999-1.471,2.319-1.473,3.693
		c-0.369,2.861-0.136,7.456-0.641,9.918c-0.162,0.805-0.949,1.325-1.755,1.163c-0.339-0.067-0.643-0.254-0.861-0.522
		c-0.75-1.1-1.214-2.369-1.345-3.693l-1.963-13.347c-0.11-0.877-0.607-1.658-1.354-2.133c-2.145-1.275-4.038,1.42-4.595,3.643
		c-0.877,3.51-1.102,7.153-0.661,10.744c0.32,1.758,0.354,3.557,0.1,5.327c-0.158,0.627-0.799,1.01-1.428,0.85
		c-0.431-0.108-0.765-0.451-0.86-0.885l-2.603-11.702c-0.216-0.967-0.463-2.001-1.568-2.436c-0.952-0.344-2.015-0.13-2.76,0.555
		c-1.137,1.22-1.685,2.876-1.5,4.532c0.081,5.592,2.545,11.868,0.103,16.571c-0.238,0.468-0.807,0.654-1.275,0.418
		c-0.156-0.077-0.286-0.198-0.378-0.348c-1.354-2.181-2.977-4.225-5.685-4.805c-1.719-0.419-3.509,0.342-4.406,1.867
		c-1.525,2.786,1.185,5.669,3.367,7.839c27.536,27.358,4.718,67.301,6.963,99.267C-232.698,48.511-199.47,50.218-199.467,50.168z"/>
</g>
<g id="Manito_2_" transform="translate(34.795 105.575) rotate(-150)">
	<path id="Trazado_91_2_" fill="#8778B4" d="M-958.437,699.486l7.27-124.236c0.004-1.537-1.021-2.887-2.502-3.295
		c-2.144-0.532-3.348,1.486-4.147,3.213l-2.913,6.305c-0.221,0.477-0.786,0.684-1.262,0.464c-0.271-0.126-0.468-0.374-0.532-0.667
		l-2.921-13.811c-0.175-0.847-0.388-1.749-1.395-2.079c-0.718-0.212-1.495-0.043-2.059,0.451c-0.983,1.04-1.531,2.414-1.535,3.845
		c-0.381,2.981-0.139,7.764-0.666,10.328c-0.17,0.838-0.987,1.382-1.827,1.213c-0.353-0.072-0.67-0.264-0.897-0.544
		c-0.782-1.145-1.264-2.467-1.399-3.847l-2.045-13.898c-0.115-0.914-0.631-1.729-1.41-2.222c-2.234-1.326-4.204,1.478-4.784,3.795
		c-0.916,3.654-1.148,7.449-0.688,11.188c0.333,1.831,0.368,3.703,0.103,5.547c-0.165,0.654-0.83,1.051-1.488,0.884
		c-0.449-0.113-0.794-0.469-0.895-0.923l-2.71-12.182c-0.224-1.009-0.481-2.083-1.632-2.538c-0.99-0.36-2.099-0.137-2.874,0.579
		c-1.183,1.269-1.754,2.991-1.561,4.717c0.083,5.825,2.65,12.36,0.106,17.259c-0.246,0.485-0.839,0.681-1.325,0.435
		c-0.162-0.081-0.298-0.208-0.392-0.361c-1.411-2.276-3.102-4.402-5.921-5.007c-1.79-0.432-3.654,0.355-4.587,1.945
		c-1.589,2.899,1.234,5.902,3.507,8.16c28.672,28.491,4.913,70.083,7.25,103.369C-993.043,697.762-958.44,699.538-958.437,699.486z"
		/>
</g>
</svg>
